P2
# teste.pgm
15 15
255
151 120 120 120 120 120 120 120 151 151 100 100 151 151 151
151 120 151 151 151 151 151 120 151 151 100 100 151 151 151
151 120 151 151 151 151 151 120 151 151 100 100 151 151 151
151 120 151 151 151 151 151 120 151 151 100 100 151 151 151
151 120 151 151 151 151 151 120 151 151 100 100 151 151 151
151 120 151 151 151 151 151 120 151 151 100 100 151 151 151
151 120 151 151 151 151 151 120 151 151 100 100 151 151 151
151 120 151 151 151 151 151 120 151 151 100 100 151 151 151
151 120 151 151 151 151 151 120 151 151 100 100 151 151 151
151 120 151 151 151 151 151 120 151 151 100 100 151 151 151
151 120 151 151 151 151 151 120 151 151 100 100 151 151 151
151 120 151 151 151 151 151 120 151 151 100 100 151 151 151
151 120 151 151 151 151 151 120 151 151 100 100 151 151 151
151 120 151 151 151 151 151 120 151 151 100 100 151 151 151
151 120 120 120 120 120 120 120 151 151 100 100 151 151 151
